<?xml version="1.0" standalone="no"?>
<!DOCTYPE svg PUBLIC "-//W3C//DTD SVG 20010904//EN"
 "http://www.w3.org/TR/2001/REC-SVG-20010904/DTD/svg10.dtd">
<svg version="1.0" xmlns="http://www.w3.org/2000/svg"
 width="500.000000pt" height="500.000000pt" viewBox="0 0 500.000000 500.000000"
 preserveAspectRatio="xMidYMid meet">

<g transform="translate(0.000000,500.000000) scale(0.100000,-0.100000)"
fill="#000000" stroke="none">
<path d="M2550 3505 l0 -135 195 0 195 0 0 135 0 135 -195 0 -195 0 0 -135z"/>
<path d="M894 3546 c-167 -38 -270 -141 -314 -311 -19 -74 -20 -111 -20 -644
0 -622 3 -650 60 -768 34 -69 105 -139 174 -173 74 -35 190 -54 269 -44 l67
10 150 -98 c82 -54 152 -98 154 -98 5 0 126 214 126 222 0 3 -36 29 -80 57
l-80 51 24 37 c36 53 64 141 76 237 8 53 10 266 7 621 -4 579 -4 580 -58 691
-43 91 -123 159 -227 195 -75 27 -243 34 -328 15z m163 -346 c58 -21 58 -17
61 -584 3 -539 -1 -608 -37 -641 -29 -26 -89 -17 -115 18 -21 28 -21 38 -24
575 -2 507 -1 550 15 582 14 26 49 57 69 60 1 0 15 -5 31 -10z"/>
<path d="M1562 2558 c4 -774 2 -747 67 -849 22 -35 44 -54 87 -75 52 -25 69
-29 154 -29 106 0 133 10 186 67 18 18 41 51 52 73 l21 40 1 -82 0 -83 195 0
195 0 0 820 0 820 -195 0 -195 0 0 -610 c0 -640 -3 -697 -43 -725 -25 -17 -70
-20 -97 -5 -38 20 -40 53 -40 706 l0 634 -195 0 -196 0 3 -702z"/>
<path d="M2550 2440 l0 -820 970 0 970 0 0 145 0 145 -195 0 c-107 0 -195 3
-195 6 0 4 86 246 190 540 l190 533 0 135 0 136 -965 0 -965 0 0 -820z m780
506 c0 -9 -372 -1001 -381 -1016 -5 -9 -9 204 -9 503 l0 517 195 0 c107 0 195
-2 195 -4z m740 -3 c0 -5 -86 -239 -191 -520 l-192 -513 -165 0 -164 0 5 23
c4 12 86 246 184 520 l177 497 173 0 c95 0 173 -3 173 -7z"/>
</g>
</svg>
